<mxfile host="Electron" agent="Mozilla/5.0 (Windows NT 10.0; Win64; x64) AppleWebKit/537.36 (KHTML, like Gecko) draw.io/24.7.8 Chrome/128.0.6613.36 Electron/32.0.1 Safari/537.36" version="24.7.8" pages="4">
  <diagram name="Test DA" id="buf2VFXwZQRwuFGmpf3k">
    <mxGraphModel dx="1050" dy="629" grid="1" gridSize="10" guides="1" tooltips="1" connect="1" arrows="1" fold="1" page="1" pageScale="1" pageWidth="850" pageHeight="1100" background="#ffffff" math="0" shadow="0">
      <root>
        <mxCell id="5x3kOLgfroQ-w9hZr5KK-0" />
        <mxCell id="5x3kOLgfroQ-w9hZr5KK-1" parent="5x3kOLgfroQ-w9hZr5KK-0" />
        <mxCell id="5x3kOLgfroQ-w9hZr5KK-2" value="VPC" style="sketch=0;outlineConnect=0;gradientColor=none;html=1;whiteSpace=wrap;fontSize=12;fontStyle=0;shape=mxgraph.aws4.group;grIcon=mxgraph.aws4.group_vpc;strokeColor=#879196;fillColor=none;verticalAlign=top;align=left;spacingLeft=30;fontColor=#879196;dashed=0;" parent="5x3kOLgfroQ-w9hZr5KK-1" vertex="1">
          <mxGeometry x="110" y="190" width="460" height="600" as="geometry" />
        </mxCell>
        <mxCell id="5x3kOLgfroQ-w9hZr5KK-3" value="Availability zone" style="sketch=0;outlineConnect=0;gradientColor=none;html=1;whiteSpace=wrap;fontSize=12;fontStyle=0;shape=mxgraph.aws4.group;grIcon=mxgraph.aws4.group_availability_zone;strokeColor=#545B64;fillColor=none;verticalAlign=top;align=left;spacingLeft=30;fontColor=#545B64;dashed=1;" parent="5x3kOLgfroQ-w9hZr5KK-1" vertex="1">
          <mxGeometry x="240" y="230" width="280" height="450" as="geometry" />
        </mxCell>
        <mxCell id="5x3kOLgfroQ-w9hZr5KK-4" value="Public Subnet" style="sketch=0;outlineConnect=0;gradientColor=none;html=1;whiteSpace=wrap;fontSize=12;fontStyle=0;shape=mxgraph.aws4.group;grIcon=mxgraph.aws4.group_subnet;strokeColor=#879196;fillColor=none;verticalAlign=top;align=left;spacingLeft=30;fontColor=#879196;dashed=0;" parent="5x3kOLgfroQ-w9hZr5KK-1" vertex="1">
          <mxGeometry x="270" y="280" width="220" height="370" as="geometry" />
        </mxCell>
        <mxCell id="5x3kOLgfroQ-w9hZr5KK-7" style="rounded=0;orthogonalLoop=1;jettySize=auto;html=1;entryX=0;entryY=0.5;entryDx=0;entryDy=0;entryPerimeter=0;endArrow=none;endFill=0;" parent="5x3kOLgfroQ-w9hZr5KK-1" source="5x3kOLgfroQ-w9hZr5KK-16" target="5x3kOLgfroQ-w9hZr5KK-19" edge="1">
          <mxGeometry relative="1" as="geometry" />
        </mxCell>
        <mxCell id="5x3kOLgfroQ-w9hZr5KK-8" style="edgeStyle=none;shape=connector;rounded=0;orthogonalLoop=1;jettySize=auto;html=1;dashed=1;strokeColor=default;align=center;verticalAlign=middle;fontFamily=Helvetica;fontSize=11;fontColor=default;labelBackgroundColor=default;endArrow=none;endFill=0;" parent="5x3kOLgfroQ-w9hZr5KK-1" source="5x3kOLgfroQ-w9hZr5KK-19" target="5x3kOLgfroQ-w9hZr5KK-28" edge="1">
          <mxGeometry relative="1" as="geometry" />
        </mxCell>
        <mxCell id="5x3kOLgfroQ-w9hZr5KK-13" style="edgeStyle=none;shape=connector;rounded=0;orthogonalLoop=1;jettySize=auto;html=1;strokeColor=default;align=center;verticalAlign=middle;fontFamily=Helvetica;fontSize=11;fontColor=default;labelBackgroundColor=default;endArrow=none;endFill=0;" parent="5x3kOLgfroQ-w9hZr5KK-1" source="5x3kOLgfroQ-w9hZr5KK-14" target="5x3kOLgfroQ-w9hZr5KK-16" edge="1">
          <mxGeometry relative="1" as="geometry" />
        </mxCell>
        <mxCell id="5x3kOLgfroQ-w9hZr5KK-14" value="Internet&#xa;gateway" style="sketch=0;outlineConnect=0;fontColor=#232F3E;gradientColor=none;strokeColor=#232F3E;fillColor=none;dashed=0;verticalLabelPosition=bottom;verticalAlign=top;align=center;html=1;fontSize=12;fontStyle=0;aspect=fixed;shape=mxgraph.aws4.resourceIcon;resIcon=mxgraph.aws4.internet_gateway;" parent="5x3kOLgfroQ-w9hZr5KK-1" vertex="1">
          <mxGeometry x="124" y="560" width="60" height="60" as="geometry" />
        </mxCell>
        <mxCell id="5x3kOLgfroQ-w9hZr5KK-15" style="edgeStyle=none;shape=connector;rounded=0;orthogonalLoop=1;jettySize=auto;html=1;strokeColor=default;align=center;verticalAlign=middle;fontFamily=Helvetica;fontSize=11;fontColor=default;labelBackgroundColor=default;endArrow=none;endFill=0;" parent="5x3kOLgfroQ-w9hZr5KK-1" source="5x3kOLgfroQ-w9hZr5KK-16" target="5x3kOLgfroQ-w9hZr5KK-35" edge="1">
          <mxGeometry relative="1" as="geometry" />
        </mxCell>
        <mxCell id="5x3kOLgfroQ-w9hZr5KK-16" value="AppLB" style="sketch=0;outlineConnect=0;fontColor=#232F3E;gradientColor=none;fillColor=#8C4FFF;strokeColor=none;dashed=0;verticalLabelPosition=bottom;verticalAlign=top;align=center;html=1;fontSize=12;fontStyle=0;aspect=fixed;pointerEvents=1;shape=mxgraph.aws4.application_load_balancer;labelBackgroundColor=default;" parent="5x3kOLgfroQ-w9hZr5KK-1" vertex="1">
          <mxGeometry x="130" y="441" width="48" height="48" as="geometry" />
        </mxCell>
        <mxCell id="5x3kOLgfroQ-w9hZr5KK-17" value="" style="group;fillColor=default;labelBackgroundColor=#FFFFFF;" parent="5x3kOLgfroQ-w9hZr5KK-1" vertex="1" connectable="0">
          <mxGeometry x="360" y="350" width="40" height="72.80000000000001" as="geometry" />
        </mxCell>
        <mxCell id="5x3kOLgfroQ-w9hZr5KK-18" value="" style="image;sketch=0;aspect=fixed;html=1;points=[];align=center;fontSize=12;image=img/lib/mscae/Docker.svg;" parent="5x3kOLgfroQ-w9hZr5KK-17" vertex="1">
          <mxGeometry width="36.59" height="30" as="geometry" />
        </mxCell>
        <mxCell id="5x3kOLgfroQ-w9hZr5KK-19" value="&lt;span style=&quot;&quot;&gt;MySQL DB&lt;/span&gt;" style="sketch=0;points=[[0,0,0],[0.25,0,0],[0.5,0,0],[0.75,0,0],[1,0,0],[0,1,0],[0.25,1,0],[0.5,1,0],[0.75,1,0],[1,1,0],[0,0.25,0],[0,0.5,0],[0,0.75,0],[1,0.25,0],[1,0.5,0],[1,0.75,0]];outlineConnect=0;fontColor=#232F3E;fillColor=#ED7100;strokeColor=#ffffff;dashed=0;verticalLabelPosition=bottom;verticalAlign=top;align=center;html=1;fontSize=12;fontStyle=0;aspect=fixed;shape=mxgraph.aws4.resourceIcon;resIcon=mxgraph.aws4.ec2;labelBackgroundColor=default;" parent="5x3kOLgfroQ-w9hZr5KK-17" vertex="1">
          <mxGeometry y="32.80000000000001" width="40" height="40" as="geometry" />
        </mxCell>
        <mxCell id="5x3kOLgfroQ-w9hZr5KK-26" style="edgeStyle=none;shape=connector;rounded=0;orthogonalLoop=1;jettySize=auto;html=1;strokeColor=default;align=center;verticalAlign=middle;fontFamily=Helvetica;fontSize=11;fontColor=default;labelBackgroundColor=default;endArrow=none;endFill=0;" parent="5x3kOLgfroQ-w9hZr5KK-1" source="5x3kOLgfroQ-w9hZr5KK-28" target="5x3kOLgfroQ-w9hZr5KK-32" edge="1">
          <mxGeometry relative="1" as="geometry" />
        </mxCell>
        <mxCell id="5x3kOLgfroQ-w9hZr5KK-27" style="edgeStyle=none;shape=connector;rounded=0;orthogonalLoop=1;jettySize=auto;html=1;dashed=1;strokeColor=default;align=center;verticalAlign=middle;fontFamily=Helvetica;fontSize=11;fontColor=default;labelBackgroundColor=default;endArrow=none;endFill=0;" parent="5x3kOLgfroQ-w9hZr5KK-1" source="5x3kOLgfroQ-w9hZr5KK-28" target="5x3kOLgfroQ-w9hZr5KK-34" edge="1">
          <mxGeometry relative="1" as="geometry" />
        </mxCell>
        <mxCell id="5x3kOLgfroQ-w9hZr5KK-28" value="S3GW Endpoint" style="sketch=0;outlineConnect=0;fontColor=#232F3E;gradientColor=none;fillColor=#8C4FFF;strokeColor=none;dashed=0;verticalLabelPosition=bottom;verticalAlign=top;align=center;html=1;fontSize=12;fontStyle=0;aspect=fixed;pointerEvents=1;shape=mxgraph.aws4.endpoints;fontFamily=Helvetica;labelBackgroundColor=default;" parent="5x3kOLgfroQ-w9hZr5KK-1" vertex="1">
          <mxGeometry x="178" y="710" width="48" height="48" as="geometry" />
        </mxCell>
        <mxCell id="5x3kOLgfroQ-w9hZr5KK-32" value="Image Storage&lt;div&gt;(S3 Bucket)&lt;/div&gt;" style="sketch=0;outlineConnect=0;fontColor=#232F3E;gradientColor=none;fillColor=#7AA116;strokeColor=none;dashed=0;verticalLabelPosition=bottom;verticalAlign=top;align=center;html=1;fontSize=12;fontStyle=0;aspect=fixed;pointerEvents=1;shape=mxgraph.aws4.bucket;fontFamily=Helvetica;labelBackgroundColor=default;" parent="5x3kOLgfroQ-w9hZr5KK-1" vertex="1">
          <mxGeometry x="610" y="710" width="46.15" height="48" as="geometry" />
        </mxCell>
        <mxCell id="oQFvIt6NRLoXoV0MxZd_-1" value="" style="group" vertex="1" connectable="0" parent="5x3kOLgfroQ-w9hZr5KK-1">
          <mxGeometry x="360" y="497.2" width="40" height="105.59999999999997" as="geometry" />
        </mxCell>
        <mxCell id="oQFvIt6NRLoXoV0MxZd_-0" value="" style="image;sketch=0;aspect=fixed;html=1;points=[];align=center;fontSize=12;image=img/lib/mscae/Docker.svg;" vertex="1" parent="oQFvIt6NRLoXoV0MxZd_-1">
          <mxGeometry width="40" height="32.8" as="geometry" />
        </mxCell>
        <mxCell id="5x3kOLgfroQ-w9hZr5KK-34" value="PHP" style="sketch=0;points=[[0,0,0],[0.25,0,0],[0.5,0,0],[0.75,0,0],[1,0,0],[0,1,0],[0.25,1,0],[0.5,1,0],[0.75,1,0],[1,1,0],[0,0.25,0],[0,0.5,0],[0,0.75,0],[1,0.25,0],[1,0.5,0],[1,0.75,0]];outlineConnect=0;fontColor=#232F3E;fillColor=#ED7100;strokeColor=#ffffff;dashed=0;verticalLabelPosition=bottom;verticalAlign=top;align=center;html=1;fontSize=12;fontStyle=0;aspect=fixed;shape=mxgraph.aws4.resourceIcon;resIcon=mxgraph.aws4.ec2;labelBackgroundColor=default;" parent="oQFvIt6NRLoXoV0MxZd_-1" vertex="1">
          <mxGeometry y="65.59999999999997" width="40" height="40" as="geometry" />
        </mxCell>
        <mxCell id="5x3kOLgfroQ-w9hZr5KK-35" value="" style="image;sketch=0;aspect=fixed;html=1;points=[];align=center;fontSize=12;image=img/lib/mscae/Docker.svg;" parent="oQFvIt6NRLoXoV0MxZd_-1" vertex="1">
          <mxGeometry y="32.80000000000001" width="40" height="32.8" as="geometry" />
        </mxCell>
      </root>
    </mxGraphModel>
  </diagram>
  <diagram name="Test" id="LQw1-CAE6PAvf181Ctmy">
    <mxGraphModel dx="1235" dy="740" grid="1" gridSize="10" guides="1" tooltips="1" connect="1" arrows="1" fold="1" page="1" pageScale="1" pageWidth="850" pageHeight="1100" background="#ffffff" math="0" shadow="0">
      <root>
        <mxCell id="0" />
        <mxCell id="1" parent="0" />
        <mxCell id="qjF8QuyVMcO3gpBsARTs-1" value="VPC" style="sketch=0;outlineConnect=0;gradientColor=none;html=1;whiteSpace=wrap;fontSize=12;fontStyle=0;shape=mxgraph.aws4.group;grIcon=mxgraph.aws4.group_vpc;strokeColor=#879196;fillColor=none;verticalAlign=top;align=left;spacingLeft=30;fontColor=#879196;dashed=0;" vertex="1" parent="1">
          <mxGeometry x="110" y="190" width="790" height="600" as="geometry" />
        </mxCell>
        <mxCell id="qjF8QuyVMcO3gpBsARTs-3" value="Availability zone" style="sketch=0;outlineConnect=0;gradientColor=none;html=1;whiteSpace=wrap;fontSize=12;fontStyle=0;shape=mxgraph.aws4.group;grIcon=mxgraph.aws4.group_availability_zone;strokeColor=#545B64;fillColor=none;verticalAlign=top;align=left;spacingLeft=30;fontColor=#545B64;dashed=1;" vertex="1" parent="1">
          <mxGeometry x="140" y="230" width="710" height="450" as="geometry" />
        </mxCell>
        <mxCell id="qjF8QuyVMcO3gpBsARTs-4" value="Public Subnet" style="sketch=0;outlineConnect=0;gradientColor=none;html=1;whiteSpace=wrap;fontSize=12;fontStyle=0;shape=mxgraph.aws4.group;grIcon=mxgraph.aws4.group_subnet;strokeColor=#879196;fillColor=none;verticalAlign=top;align=left;spacingLeft=30;fontColor=#879196;dashed=0;" vertex="1" parent="1">
          <mxGeometry x="270" y="280" width="550" height="370" as="geometry" />
        </mxCell>
        <mxCell id="qjF8QuyVMcO3gpBsARTs-16" style="shape=connector;rounded=0;orthogonalLoop=1;jettySize=auto;html=1;strokeColor=default;align=center;verticalAlign=middle;fontFamily=Helvetica;fontSize=11;fontColor=default;labelBackgroundColor=default;endArrow=none;endFill=0;" edge="1" parent="1" source="qjF8QuyVMcO3gpBsARTs-14" target="qjF8QuyVMcO3gpBsARTs-5">
          <mxGeometry relative="1" as="geometry" />
        </mxCell>
        <mxCell id="qjF8QuyVMcO3gpBsARTs-22" style="edgeStyle=none;shape=connector;rounded=0;orthogonalLoop=1;jettySize=auto;html=1;strokeColor=default;align=center;verticalAlign=middle;fontFamily=Helvetica;fontSize=11;fontColor=default;labelBackgroundColor=default;endArrow=none;endFill=0;" edge="1" parent="1" source="qjF8QuyVMcO3gpBsARTs-14" target="qjF8QuyVMcO3gpBsARTs-11">
          <mxGeometry relative="1" as="geometry" />
        </mxCell>
        <mxCell id="qjF8QuyVMcO3gpBsARTs-15" style="rounded=0;orthogonalLoop=1;jettySize=auto;html=1;entryX=0;entryY=0.5;entryDx=0;entryDy=0;entryPerimeter=0;endArrow=none;endFill=0;" edge="1" parent="1" source="qjF8QuyVMcO3gpBsARTs-14" target="qjF8QuyVMcO3gpBsARTs-8">
          <mxGeometry relative="1" as="geometry" />
        </mxCell>
        <mxCell id="qjF8QuyVMcO3gpBsARTs-34" style="edgeStyle=none;shape=connector;rounded=0;orthogonalLoop=1;jettySize=auto;html=1;dashed=1;strokeColor=default;align=center;verticalAlign=middle;fontFamily=Helvetica;fontSize=11;fontColor=default;labelBackgroundColor=default;endArrow=none;endFill=0;" edge="1" parent="1" source="qjF8QuyVMcO3gpBsARTs-8" target="qjF8QuyVMcO3gpBsARTs-24">
          <mxGeometry relative="1" as="geometry" />
        </mxCell>
        <mxCell id="qjF8QuyVMcO3gpBsARTs-32" style="shape=connector;rounded=0;orthogonalLoop=1;jettySize=auto;html=1;strokeColor=default;align=center;verticalAlign=middle;fontFamily=Helvetica;fontSize=11;fontColor=default;labelBackgroundColor=default;endArrow=none;endFill=0;" edge="1" parent="1" source="qjF8QuyVMcO3gpBsARTs-7" target="qjF8QuyVMcO3gpBsARTs-14">
          <mxGeometry relative="1" as="geometry">
            <Array as="points" />
          </mxGeometry>
        </mxCell>
        <mxCell id="qjF8QuyVMcO3gpBsARTs-33" style="edgeStyle=none;shape=connector;rounded=0;orthogonalLoop=1;jettySize=auto;html=1;strokeColor=default;align=center;verticalAlign=middle;fontFamily=Helvetica;fontSize=11;fontColor=default;labelBackgroundColor=default;endArrow=none;endFill=0;dashed=1;" edge="1" parent="1" source="qjF8QuyVMcO3gpBsARTs-5" target="qjF8QuyVMcO3gpBsARTs-24">
          <mxGeometry relative="1" as="geometry" />
        </mxCell>
        <mxCell id="qjF8QuyVMcO3gpBsARTs-35" style="edgeStyle=none;shape=connector;rounded=0;orthogonalLoop=1;jettySize=auto;html=1;dashed=1;strokeColor=default;align=center;verticalAlign=middle;fontFamily=Helvetica;fontSize=11;fontColor=default;labelBackgroundColor=default;endArrow=none;endFill=0;" edge="1" parent="1" source="qjF8QuyVMcO3gpBsARTs-7" target="qjF8QuyVMcO3gpBsARTs-24">
          <mxGeometry relative="1" as="geometry" />
        </mxCell>
        <mxCell id="qjF8QuyVMcO3gpBsARTs-36" style="edgeStyle=none;shape=connector;rounded=0;orthogonalLoop=1;jettySize=auto;html=1;dashed=1;strokeColor=default;align=center;verticalAlign=middle;fontFamily=Helvetica;fontSize=11;fontColor=default;labelBackgroundColor=default;endArrow=none;endFill=0;" edge="1" parent="1" source="qjF8QuyVMcO3gpBsARTs-6" target="qjF8QuyVMcO3gpBsARTs-24">
          <mxGeometry relative="1" as="geometry" />
        </mxCell>
        <mxCell id="qjF8QuyVMcO3gpBsARTs-23" style="edgeStyle=none;shape=connector;rounded=0;orthogonalLoop=1;jettySize=auto;html=1;strokeColor=default;align=center;verticalAlign=middle;fontFamily=Helvetica;fontSize=11;fontColor=default;labelBackgroundColor=default;endArrow=none;endFill=0;" edge="1" parent="1" source="qjF8QuyVMcO3gpBsARTs-2" target="qjF8QuyVMcO3gpBsARTs-14">
          <mxGeometry relative="1" as="geometry" />
        </mxCell>
        <mxCell id="qjF8QuyVMcO3gpBsARTs-2" value="Internet&#xa;gateway" style="sketch=0;outlineConnect=0;fontColor=#232F3E;gradientColor=none;strokeColor=#232F3E;fillColor=none;dashed=0;verticalLabelPosition=bottom;verticalAlign=top;align=center;html=1;fontSize=12;fontStyle=0;aspect=fixed;shape=mxgraph.aws4.resourceIcon;resIcon=mxgraph.aws4.internet_gateway;" vertex="1" parent="1">
          <mxGeometry x="30" y="435" width="60" height="60" as="geometry" />
        </mxCell>
        <mxCell id="novmfhBnv8FTrywA7ein-8" style="edgeStyle=none;shape=connector;rounded=0;orthogonalLoop=1;jettySize=auto;html=1;strokeColor=default;align=center;verticalAlign=middle;fontFamily=Helvetica;fontSize=11;fontColor=default;labelBackgroundColor=default;endArrow=none;endFill=0;" edge="1" parent="1" source="qjF8QuyVMcO3gpBsARTs-14" target="novmfhBnv8FTrywA7ein-3">
          <mxGeometry relative="1" as="geometry" />
        </mxCell>
        <mxCell id="qjF8QuyVMcO3gpBsARTs-14" value="AppLB" style="sketch=0;outlineConnect=0;fontColor=#232F3E;gradientColor=none;fillColor=#8C4FFF;strokeColor=none;dashed=0;verticalLabelPosition=bottom;verticalAlign=top;align=center;html=1;fontSize=12;fontStyle=0;aspect=fixed;pointerEvents=1;shape=mxgraph.aws4.application_load_balancer;" vertex="1" parent="1">
          <mxGeometry x="180" y="441" width="48" height="48" as="geometry" />
        </mxCell>
        <mxCell id="qjF8QuyVMcO3gpBsARTs-18" value="" style="group;fillColor=default;labelBackgroundColor=#FFFFFF;" vertex="1" connectable="0" parent="1">
          <mxGeometry x="340" y="320" width="40" height="72.80000000000001" as="geometry" />
        </mxCell>
        <mxCell id="qjF8QuyVMcO3gpBsARTs-12" value="" style="image;sketch=0;aspect=fixed;html=1;points=[];align=center;fontSize=12;image=img/lib/mscae/Docker.svg;" vertex="1" parent="qjF8QuyVMcO3gpBsARTs-18">
          <mxGeometry width="36.59" height="30" as="geometry" />
        </mxCell>
        <mxCell id="qjF8QuyVMcO3gpBsARTs-8" value="&lt;span style=&quot;&quot;&gt;MySQL DB&lt;/span&gt;" style="sketch=0;points=[[0,0,0],[0.25,0,0],[0.5,0,0],[0.75,0,0],[1,0,0],[0,1,0],[0.25,1,0],[0.5,1,0],[0.75,1,0],[1,1,0],[0,0.25,0],[0,0.5,0],[0,0.75,0],[1,0.25,0],[1,0.5,0],[1,0.75,0]];outlineConnect=0;fontColor=#232F3E;fillColor=#ED7100;strokeColor=#ffffff;dashed=0;verticalLabelPosition=bottom;verticalAlign=top;align=center;html=1;fontSize=12;fontStyle=0;aspect=fixed;shape=mxgraph.aws4.resourceIcon;resIcon=mxgraph.aws4.ec2;labelBackgroundColor=default;" vertex="1" parent="qjF8QuyVMcO3gpBsARTs-18">
          <mxGeometry y="32.80000000000001" width="40" height="40" as="geometry" />
        </mxCell>
        <mxCell id="qjF8QuyVMcO3gpBsARTs-20" value="" style="group" vertex="1" connectable="0" parent="1">
          <mxGeometry x="520" y="514" width="40" height="72.79999999999995" as="geometry" />
        </mxCell>
        <mxCell id="qjF8QuyVMcO3gpBsARTs-6" value="Java Backend" style="sketch=0;points=[[0,0,0],[0.25,0,0],[0.5,0,0],[0.75,0,0],[1,0,0],[0,1,0],[0.25,1,0],[0.5,1,0],[0.75,1,0],[1,1,0],[0,0.25,0],[0,0.5,0],[0,0.75,0],[1,0.25,0],[1,0.5,0],[1,0.75,0]];outlineConnect=0;fontColor=#232F3E;fillColor=#ED7100;strokeColor=#ffffff;dashed=0;verticalLabelPosition=bottom;verticalAlign=top;align=center;html=1;fontSize=12;fontStyle=0;aspect=fixed;shape=mxgraph.aws4.resourceIcon;resIcon=mxgraph.aws4.ec2;labelBackgroundColor=default;" vertex="1" parent="qjF8QuyVMcO3gpBsARTs-20">
          <mxGeometry y="32.799999999999955" width="40" height="40" as="geometry" />
        </mxCell>
        <mxCell id="qjF8QuyVMcO3gpBsARTs-11" value="" style="image;sketch=0;aspect=fixed;html=1;points=[];align=center;fontSize=12;image=img/lib/mscae/Docker.svg;" vertex="1" parent="qjF8QuyVMcO3gpBsARTs-20">
          <mxGeometry width="40" height="32.8" as="geometry" />
        </mxCell>
        <mxCell id="qjF8QuyVMcO3gpBsARTs-21" value="" style="group" vertex="1" connectable="0" parent="1">
          <mxGeometry x="340" y="514" width="40" height="72.79999999999995" as="geometry" />
        </mxCell>
        <mxCell id="qjF8QuyVMcO3gpBsARTs-5" value="Angular Web" style="sketch=0;points=[[0,0,0],[0.25,0,0],[0.5,0,0],[0.75,0,0],[1,0,0],[0,1,0],[0.25,1,0],[0.5,1,0],[0.75,1,0],[1,1,0],[0,0.25,0],[0,0.5,0],[0,0.75,0],[1,0.25,0],[1,0.5,0],[1,0.75,0]];outlineConnect=0;fontColor=#232F3E;fillColor=#ED7100;strokeColor=#ffffff;dashed=0;verticalLabelPosition=bottom;verticalAlign=top;align=center;html=1;fontSize=12;fontStyle=0;aspect=fixed;shape=mxgraph.aws4.resourceIcon;resIcon=mxgraph.aws4.ec2;labelBackgroundColor=default;" vertex="1" parent="qjF8QuyVMcO3gpBsARTs-21">
          <mxGeometry y="32.799999999999955" width="40" height="40" as="geometry" />
        </mxCell>
        <mxCell id="qjF8QuyVMcO3gpBsARTs-10" value="" style="image;sketch=0;aspect=fixed;html=1;points=[];align=center;fontSize=12;image=img/lib/mscae/Docker.svg;" vertex="1" parent="qjF8QuyVMcO3gpBsARTs-21">
          <mxGeometry width="40" height="32.8" as="geometry" />
        </mxCell>
        <mxCell id="qjF8QuyVMcO3gpBsARTs-39" style="edgeStyle=none;shape=connector;rounded=0;orthogonalLoop=1;jettySize=auto;html=1;strokeColor=default;align=center;verticalAlign=middle;fontFamily=Helvetica;fontSize=11;fontColor=default;labelBackgroundColor=default;endArrow=none;endFill=0;" edge="1" parent="1" source="qjF8QuyVMcO3gpBsARTs-24" target="qjF8QuyVMcO3gpBsARTs-38">
          <mxGeometry relative="1" as="geometry" />
        </mxCell>
        <mxCell id="novmfhBnv8FTrywA7ein-11" style="edgeStyle=none;shape=connector;rounded=0;orthogonalLoop=1;jettySize=auto;html=1;dashed=1;dashPattern=1 1;strokeColor=default;align=center;verticalAlign=middle;fontFamily=Helvetica;fontSize=11;fontColor=default;labelBackgroundColor=default;endArrow=none;endFill=0;" edge="1" parent="1" source="qjF8QuyVMcO3gpBsARTs-24" target="novmfhBnv8FTrywA7ein-2">
          <mxGeometry relative="1" as="geometry" />
        </mxCell>
        <mxCell id="qjF8QuyVMcO3gpBsARTs-24" value="S3GW Endpoint" style="sketch=0;outlineConnect=0;fontColor=#232F3E;gradientColor=none;fillColor=#8C4FFF;strokeColor=none;dashed=0;verticalLabelPosition=bottom;verticalAlign=top;align=center;html=1;fontSize=12;fontStyle=0;aspect=fixed;pointerEvents=1;shape=mxgraph.aws4.endpoints;fontFamily=Helvetica;labelBackgroundColor=default;" vertex="1" parent="1">
          <mxGeometry x="422" y="710" width="48" height="48" as="geometry" />
        </mxCell>
        <mxCell id="qjF8QuyVMcO3gpBsARTs-19" value="" style="group;labelBackgroundColor=#FFFFFF;" vertex="1" connectable="0" parent="1">
          <mxGeometry x="520" y="320" width="40" height="72.80000000000001" as="geometry" />
        </mxCell>
        <mxCell id="qjF8QuyVMcO3gpBsARTs-7" value="&lt;span style=&quot;background-color: rgb(255, 255, 255);&quot;&gt;Redis&lt;/span&gt;" style="sketch=0;points=[[0,0,0],[0.25,0,0],[0.5,0,0],[0.75,0,0],[1,0,0],[0,1,0],[0.25,1,0],[0.5,1,0],[0.75,1,0],[1,1,0],[0,0.25,0],[0,0.5,0],[0,0.75,0],[1,0.25,0],[1,0.5,0],[1,0.75,0]];outlineConnect=0;fontColor=#232F3E;fillColor=#ED7100;strokeColor=#ffffff;dashed=0;verticalLabelPosition=bottom;verticalAlign=top;align=center;html=1;fontSize=12;fontStyle=0;aspect=fixed;shape=mxgraph.aws4.resourceIcon;resIcon=mxgraph.aws4.ec2;" vertex="1" parent="qjF8QuyVMcO3gpBsARTs-19">
          <mxGeometry y="32.80000000000001" width="40" height="40" as="geometry" />
        </mxCell>
        <mxCell id="qjF8QuyVMcO3gpBsARTs-13" value="" style="image;sketch=0;aspect=fixed;html=1;points=[];align=center;fontSize=12;image=img/lib/mscae/Docker.svg;" vertex="1" parent="qjF8QuyVMcO3gpBsARTs-19">
          <mxGeometry width="40" height="32.8" as="geometry" />
        </mxCell>
        <mxCell id="qjF8QuyVMcO3gpBsARTs-38" value="Image Storage (S3)" style="sketch=0;outlineConnect=0;fontColor=#232F3E;gradientColor=none;fillColor=#7AA116;strokeColor=none;dashed=0;verticalLabelPosition=bottom;verticalAlign=top;align=center;html=1;fontSize=12;fontStyle=0;aspect=fixed;pointerEvents=1;shape=mxgraph.aws4.bucket;fontFamily=Helvetica;labelBackgroundColor=default;" vertex="1" parent="1">
          <mxGeometry x="970" y="710" width="46.15" height="48" as="geometry" />
        </mxCell>
        <mxCell id="novmfhBnv8FTrywA7ein-1" value="" style="group" vertex="1" connectable="0" parent="1">
          <mxGeometry x="700" y="514" width="40" height="72.79999999999995" as="geometry" />
        </mxCell>
        <mxCell id="novmfhBnv8FTrywA7ein-2" value="PHP" style="sketch=0;points=[[0,0,0],[0.25,0,0],[0.5,0,0],[0.75,0,0],[1,0,0],[0,1,0],[0.25,1,0],[0.5,1,0],[0.75,1,0],[1,1,0],[0,0.25,0],[0,0.5,0],[0,0.75,0],[1,0.25,0],[1,0.5,0],[1,0.75,0]];outlineConnect=0;fontColor=#232F3E;fillColor=#ED7100;strokeColor=#ffffff;dashed=0;verticalLabelPosition=bottom;verticalAlign=top;align=center;html=1;fontSize=12;fontStyle=0;aspect=fixed;shape=mxgraph.aws4.resourceIcon;resIcon=mxgraph.aws4.ec2;labelBackgroundColor=default;" vertex="1" parent="novmfhBnv8FTrywA7ein-1">
          <mxGeometry y="32.799999999999955" width="40" height="40" as="geometry" />
        </mxCell>
        <mxCell id="novmfhBnv8FTrywA7ein-3" value="" style="image;sketch=0;aspect=fixed;html=1;points=[];align=center;fontSize=12;image=img/lib/mscae/Docker.svg;" vertex="1" parent="novmfhBnv8FTrywA7ein-1">
          <mxGeometry width="40" height="32.8" as="geometry" />
        </mxCell>
        <mxCell id="novmfhBnv8FTrywA7ein-4" value="" style="group" vertex="1" connectable="0" parent="1">
          <mxGeometry x="700" y="320" width="40" height="72.79999999999995" as="geometry" />
        </mxCell>
        <mxCell id="novmfhBnv8FTrywA7ein-5" value="Python OCR" style="sketch=0;points=[[0,0,0],[0.25,0,0],[0.5,0,0],[0.75,0,0],[1,0,0],[0,1,0],[0.25,1,0],[0.5,1,0],[0.75,1,0],[1,1,0],[0,0.25,0],[0,0.5,0],[0,0.75,0],[1,0.25,0],[1,0.5,0],[1,0.75,0]];outlineConnect=0;fontColor=#232F3E;fillColor=#ED7100;strokeColor=#ffffff;dashed=0;verticalLabelPosition=bottom;verticalAlign=top;align=center;html=1;fontSize=12;fontStyle=0;aspect=fixed;shape=mxgraph.aws4.resourceIcon;resIcon=mxgraph.aws4.ec2;labelBackgroundColor=default;" vertex="1" parent="novmfhBnv8FTrywA7ein-4">
          <mxGeometry y="32.799999999999955" width="40" height="40" as="geometry" />
        </mxCell>
        <mxCell id="novmfhBnv8FTrywA7ein-6" value="" style="image;sketch=0;aspect=fixed;html=1;points=[];align=center;fontSize=12;image=img/lib/mscae/Docker.svg;" vertex="1" parent="novmfhBnv8FTrywA7ein-4">
          <mxGeometry width="40" height="32.8" as="geometry" />
        </mxCell>
        <mxCell id="novmfhBnv8FTrywA7ein-9" style="edgeStyle=none;shape=connector;rounded=0;orthogonalLoop=1;jettySize=auto;html=1;entryX=0.75;entryY=1;entryDx=0;entryDy=0;entryPerimeter=0;strokeColor=default;align=center;verticalAlign=middle;fontFamily=Helvetica;fontSize=11;fontColor=default;labelBackgroundColor=default;endArrow=none;endFill=0;" edge="1" parent="1" source="qjF8QuyVMcO3gpBsARTs-14" target="novmfhBnv8FTrywA7ein-5">
          <mxGeometry relative="1" as="geometry" />
        </mxCell>
        <mxCell id="novmfhBnv8FTrywA7ein-10" style="edgeStyle=none;shape=connector;rounded=0;orthogonalLoop=1;jettySize=auto;html=1;entryX=0.75;entryY=1;entryDx=0;entryDy=0;entryPerimeter=0;dashed=1;strokeColor=default;align=center;verticalAlign=middle;fontFamily=Helvetica;fontSize=11;fontColor=default;labelBackgroundColor=default;endArrow=none;endFill=0;" edge="1" parent="1" source="qjF8QuyVMcO3gpBsARTs-24" target="novmfhBnv8FTrywA7ein-5">
          <mxGeometry relative="1" as="geometry" />
        </mxCell>
      </root>
    </mxGraphModel>
  </diagram>
  <diagram name="Stage 2" id="hoWVU1kt5RrWhZtYo3jM">
    <mxGraphModel dx="1235" dy="740" grid="1" gridSize="10" guides="1" tooltips="1" connect="1" arrows="1" fold="1" page="1" pageScale="1" pageWidth="850" pageHeight="1100" background="#ffffff" math="0" shadow="0">
      <root>
        <mxCell id="KThbdlaeHImmBJ1lx7RJ-0" />
        <mxCell id="KThbdlaeHImmBJ1lx7RJ-1" parent="KThbdlaeHImmBJ1lx7RJ-0" />
        <mxCell id="KThbdlaeHImmBJ1lx7RJ-2" value="VPC" style="sketch=0;outlineConnect=0;gradientColor=none;html=1;whiteSpace=wrap;fontSize=12;fontStyle=0;shape=mxgraph.aws4.group;grIcon=mxgraph.aws4.group_vpc;strokeColor=#879196;fillColor=none;verticalAlign=top;align=left;spacingLeft=30;fontColor=#879196;dashed=0;" vertex="1" parent="KThbdlaeHImmBJ1lx7RJ-1">
          <mxGeometry x="110" y="190" width="530" height="630" as="geometry" />
        </mxCell>
        <mxCell id="KThbdlaeHImmBJ1lx7RJ-3" value="Availability zone" style="sketch=0;outlineConnect=0;gradientColor=none;html=1;whiteSpace=wrap;fontSize=12;fontStyle=0;shape=mxgraph.aws4.group;grIcon=mxgraph.aws4.group_availability_zone;strokeColor=#545B64;fillColor=none;verticalAlign=top;align=left;spacingLeft=30;fontColor=#545B64;dashed=1;" vertex="1" parent="KThbdlaeHImmBJ1lx7RJ-1">
          <mxGeometry x="140" y="230" width="460" height="450" as="geometry" />
        </mxCell>
        <mxCell id="lpPBF1-I7H66YXGYZygB-2" value="Private subnet" style="points=[[0,0],[0.25,0],[0.5,0],[0.75,0],[1,0],[1,0.25],[1,0.5],[1,0.75],[1,1],[0.75,1],[0.5,1],[0.25,1],[0,1],[0,0.75],[0,0.5],[0,0.25]];outlineConnect=0;gradientColor=none;html=1;whiteSpace=wrap;fontSize=12;fontStyle=0;container=1;pointerEvents=0;collapsible=0;recursiveResize=0;shape=mxgraph.aws4.group;grIcon=mxgraph.aws4.group_security_group;grStroke=0;strokeColor=#00A4A6;fillColor=#E6F6F7;verticalAlign=top;align=left;spacingLeft=30;fontColor=#147EBA;dashed=0;fontFamily=Helvetica;labelBackgroundColor=default;" vertex="1" parent="KThbdlaeHImmBJ1lx7RJ-1">
          <mxGeometry x="340" y="280" width="220" height="360" as="geometry" />
        </mxCell>
        <mxCell id="lpPBF1-I7H66YXGYZygB-3" value="Public subnet" style="points=[[0,0],[0.25,0],[0.5,0],[0.75,0],[1,0],[1,0.25],[1,0.5],[1,0.75],[1,1],[0.75,1],[0.5,1],[0.25,1],[0,1],[0,0.75],[0,0.5],[0,0.25]];outlineConnect=0;html=1;whiteSpace=wrap;fontSize=12;fontStyle=0;container=1;pointerEvents=0;collapsible=0;recursiveResize=0;shape=mxgraph.aws4.group;grIcon=mxgraph.aws4.group_security_group;grStroke=0;strokeColor=#82b366;fillColor=#d5e8d4;verticalAlign=top;align=left;spacingLeft=30;dashed=0;fontFamily=Helvetica;labelBackgroundColor=default;" vertex="1" parent="KThbdlaeHImmBJ1lx7RJ-1">
          <mxGeometry x="159" y="280" width="161" height="360" as="geometry" />
        </mxCell>
        <mxCell id="Z1C53QJ-vrZe8WPQaVx9-0" value="NAT GW" style="sketch=0;outlineConnect=0;fontColor=#232F3E;gradientColor=none;fillColor=#8C4FFF;strokeColor=none;dashed=0;verticalLabelPosition=bottom;verticalAlign=top;align=center;html=1;fontSize=12;fontStyle=0;aspect=fixed;pointerEvents=1;shape=mxgraph.aws4.nat_gateway;fontFamily=Helvetica;labelBackgroundColor=default;rotation=0;flipH=1;" vertex="1" parent="lpPBF1-I7H66YXGYZygB-3">
          <mxGeometry x="45.8" y="263.6" width="43.2" height="43.2" as="geometry" />
        </mxCell>
        <mxCell id="KThbdlaeHImmBJ1lx7RJ-5" style="shape=connector;rounded=0;orthogonalLoop=1;jettySize=auto;html=1;strokeColor=default;align=center;verticalAlign=middle;fontFamily=Helvetica;fontSize=11;fontColor=default;labelBackgroundColor=default;endArrow=none;endFill=0;" edge="1" parent="KThbdlaeHImmBJ1lx7RJ-1" source="KThbdlaeHImmBJ1lx7RJ-15" target="KThbdlaeHImmBJ1lx7RJ-23">
          <mxGeometry relative="1" as="geometry" />
        </mxCell>
        <mxCell id="KThbdlaeHImmBJ1lx7RJ-6" style="edgeStyle=none;shape=connector;rounded=0;orthogonalLoop=1;jettySize=auto;html=1;strokeColor=default;align=center;verticalAlign=middle;fontFamily=Helvetica;fontSize=11;fontColor=default;labelBackgroundColor=default;endArrow=none;endFill=0;" edge="1" parent="KThbdlaeHImmBJ1lx7RJ-1" source="KThbdlaeHImmBJ1lx7RJ-15" target="KThbdlaeHImmBJ1lx7RJ-21">
          <mxGeometry relative="1" as="geometry" />
        </mxCell>
        <mxCell id="KThbdlaeHImmBJ1lx7RJ-7" style="rounded=0;orthogonalLoop=1;jettySize=auto;html=1;entryX=0;entryY=0.5;entryDx=0;entryDy=0;entryPerimeter=0;endArrow=none;endFill=0;" edge="1" parent="KThbdlaeHImmBJ1lx7RJ-1" source="KThbdlaeHImmBJ1lx7RJ-15" target="KThbdlaeHImmBJ1lx7RJ-18">
          <mxGeometry relative="1" as="geometry" />
        </mxCell>
        <mxCell id="KThbdlaeHImmBJ1lx7RJ-8" style="edgeStyle=none;shape=connector;rounded=0;orthogonalLoop=1;jettySize=auto;html=1;dashed=1;strokeColor=default;align=center;verticalAlign=middle;fontFamily=Helvetica;fontSize=11;fontColor=default;labelBackgroundColor=default;endArrow=none;endFill=0;" edge="1" parent="KThbdlaeHImmBJ1lx7RJ-1" source="KThbdlaeHImmBJ1lx7RJ-18" target="KThbdlaeHImmBJ1lx7RJ-26">
          <mxGeometry relative="1" as="geometry" />
        </mxCell>
        <mxCell id="KThbdlaeHImmBJ1lx7RJ-9" style="shape=connector;rounded=0;orthogonalLoop=1;jettySize=auto;html=1;strokeColor=default;align=center;verticalAlign=middle;fontFamily=Helvetica;fontSize=11;fontColor=default;labelBackgroundColor=default;endArrow=none;endFill=0;" edge="1" parent="KThbdlaeHImmBJ1lx7RJ-1" source="KThbdlaeHImmBJ1lx7RJ-28" target="KThbdlaeHImmBJ1lx7RJ-15">
          <mxGeometry relative="1" as="geometry">
            <Array as="points" />
          </mxGeometry>
        </mxCell>
        <mxCell id="KThbdlaeHImmBJ1lx7RJ-10" style="edgeStyle=none;shape=connector;rounded=0;orthogonalLoop=1;jettySize=auto;html=1;strokeColor=default;align=center;verticalAlign=middle;fontFamily=Helvetica;fontSize=11;fontColor=default;labelBackgroundColor=default;endArrow=none;endFill=0;dashed=1;" edge="1" parent="KThbdlaeHImmBJ1lx7RJ-1" source="KThbdlaeHImmBJ1lx7RJ-23" target="KThbdlaeHImmBJ1lx7RJ-26">
          <mxGeometry relative="1" as="geometry" />
        </mxCell>
        <mxCell id="KThbdlaeHImmBJ1lx7RJ-11" style="edgeStyle=none;shape=connector;rounded=0;orthogonalLoop=1;jettySize=auto;html=1;dashed=1;strokeColor=default;align=center;verticalAlign=middle;fontFamily=Helvetica;fontSize=11;fontColor=default;labelBackgroundColor=default;endArrow=none;endFill=0;" edge="1" parent="KThbdlaeHImmBJ1lx7RJ-1" source="KThbdlaeHImmBJ1lx7RJ-28" target="KThbdlaeHImmBJ1lx7RJ-26">
          <mxGeometry relative="1" as="geometry" />
        </mxCell>
        <mxCell id="KThbdlaeHImmBJ1lx7RJ-12" style="edgeStyle=none;shape=connector;rounded=0;orthogonalLoop=1;jettySize=auto;html=1;dashed=1;strokeColor=default;align=center;verticalAlign=middle;fontFamily=Helvetica;fontSize=11;fontColor=default;labelBackgroundColor=default;endArrow=none;endFill=0;" edge="1" parent="KThbdlaeHImmBJ1lx7RJ-1" source="KThbdlaeHImmBJ1lx7RJ-20" target="KThbdlaeHImmBJ1lx7RJ-26">
          <mxGeometry relative="1" as="geometry" />
        </mxCell>
        <mxCell id="KThbdlaeHImmBJ1lx7RJ-13" style="edgeStyle=none;shape=connector;rounded=0;orthogonalLoop=1;jettySize=auto;html=1;strokeColor=default;align=center;verticalAlign=middle;fontFamily=Helvetica;fontSize=11;fontColor=default;labelBackgroundColor=default;endArrow=none;endFill=0;" edge="1" parent="KThbdlaeHImmBJ1lx7RJ-1" source="KThbdlaeHImmBJ1lx7RJ-14" target="KThbdlaeHImmBJ1lx7RJ-15">
          <mxGeometry relative="1" as="geometry" />
        </mxCell>
        <mxCell id="KThbdlaeHImmBJ1lx7RJ-14" value="Internet&#xa;gateway" style="sketch=0;outlineConnect=0;fontColor=#232F3E;gradientColor=none;strokeColor=#232F3E;fillColor=none;dashed=0;verticalLabelPosition=bottom;verticalAlign=top;align=center;html=1;fontSize=12;fontStyle=0;aspect=fixed;shape=mxgraph.aws4.resourceIcon;resIcon=mxgraph.aws4.internet_gateway;" vertex="1" parent="KThbdlaeHImmBJ1lx7RJ-1">
          <mxGeometry x="30" y="435" width="60" height="60" as="geometry" />
        </mxCell>
        <mxCell id="KThbdlaeHImmBJ1lx7RJ-15" value="AppLB" style="sketch=0;outlineConnect=0;fontColor=#232F3E;gradientColor=none;fillColor=#8C4FFF;strokeColor=none;dashed=0;verticalLabelPosition=bottom;verticalAlign=top;align=center;html=1;fontSize=12;fontStyle=0;aspect=fixed;pointerEvents=1;shape=mxgraph.aws4.application_load_balancer;" vertex="1" parent="KThbdlaeHImmBJ1lx7RJ-1">
          <mxGeometry x="200" y="441" width="48" height="48" as="geometry" />
        </mxCell>
        <mxCell id="KThbdlaeHImmBJ1lx7RJ-16" value="" style="group;fillColor=default;labelBackgroundColor=#FFFFFF;" vertex="1" connectable="0" parent="KThbdlaeHImmBJ1lx7RJ-1">
          <mxGeometry x="363" y="320" width="40" height="72.80000000000001" as="geometry" />
        </mxCell>
        <mxCell id="KThbdlaeHImmBJ1lx7RJ-17" value="" style="image;sketch=0;aspect=fixed;html=1;points=[];align=center;fontSize=12;image=img/lib/mscae/Docker.svg;" vertex="1" parent="KThbdlaeHImmBJ1lx7RJ-16">
          <mxGeometry width="36.59" height="30" as="geometry" />
        </mxCell>
        <mxCell id="KThbdlaeHImmBJ1lx7RJ-18" value="&lt;span style=&quot;&quot;&gt;DB&lt;/span&gt;" style="sketch=0;points=[[0,0,0],[0.25,0,0],[0.5,0,0],[0.75,0,0],[1,0,0],[0,1,0],[0.25,1,0],[0.5,1,0],[0.75,1,0],[1,1,0],[0,0.25,0],[0,0.5,0],[0,0.75,0],[1,0.25,0],[1,0.5,0],[1,0.75,0]];outlineConnect=0;fontColor=#232F3E;fillColor=#ED7100;strokeColor=#ffffff;dashed=0;verticalLabelPosition=bottom;verticalAlign=top;align=center;html=1;fontSize=12;fontStyle=0;aspect=fixed;shape=mxgraph.aws4.resourceIcon;resIcon=mxgraph.aws4.ec2;labelBackgroundColor=default;" vertex="1" parent="KThbdlaeHImmBJ1lx7RJ-16">
          <mxGeometry y="32.80000000000001" width="40" height="40" as="geometry" />
        </mxCell>
        <mxCell id="KThbdlaeHImmBJ1lx7RJ-19" value="" style="group" vertex="1" connectable="0" parent="KThbdlaeHImmBJ1lx7RJ-1">
          <mxGeometry x="493" y="514" width="40" height="72.79999999999995" as="geometry" />
        </mxCell>
        <mxCell id="KThbdlaeHImmBJ1lx7RJ-20" value="Java" style="sketch=0;points=[[0,0,0],[0.25,0,0],[0.5,0,0],[0.75,0,0],[1,0,0],[0,1,0],[0.25,1,0],[0.5,1,0],[0.75,1,0],[1,1,0],[0,0.25,0],[0,0.5,0],[0,0.75,0],[1,0.25,0],[1,0.5,0],[1,0.75,0]];outlineConnect=0;fontColor=#232F3E;fillColor=#ED7100;strokeColor=#ffffff;dashed=0;verticalLabelPosition=bottom;verticalAlign=top;align=center;html=1;fontSize=12;fontStyle=0;aspect=fixed;shape=mxgraph.aws4.resourceIcon;resIcon=mxgraph.aws4.ec2;labelBackgroundColor=default;" vertex="1" parent="KThbdlaeHImmBJ1lx7RJ-19">
          <mxGeometry y="32.799999999999955" width="40" height="40" as="geometry" />
        </mxCell>
        <mxCell id="KThbdlaeHImmBJ1lx7RJ-21" value="" style="image;sketch=0;aspect=fixed;html=1;points=[];align=center;fontSize=12;image=img/lib/mscae/Docker.svg;" vertex="1" parent="KThbdlaeHImmBJ1lx7RJ-19">
          <mxGeometry width="40" height="32.8" as="geometry" />
        </mxCell>
        <mxCell id="KThbdlaeHImmBJ1lx7RJ-22" value="" style="group" vertex="1" connectable="0" parent="KThbdlaeHImmBJ1lx7RJ-1">
          <mxGeometry x="363" y="514" width="40" height="72.79999999999995" as="geometry" />
        </mxCell>
        <mxCell id="KThbdlaeHImmBJ1lx7RJ-23" value="Angular" style="sketch=0;points=[[0,0,0],[0.25,0,0],[0.5,0,0],[0.75,0,0],[1,0,0],[0,1,0],[0.25,1,0],[0.5,1,0],[0.75,1,0],[1,1,0],[0,0.25,0],[0,0.5,0],[0,0.75,0],[1,0.25,0],[1,0.5,0],[1,0.75,0]];outlineConnect=0;fontColor=#232F3E;fillColor=#ED7100;strokeColor=#ffffff;dashed=0;verticalLabelPosition=bottom;verticalAlign=top;align=center;html=1;fontSize=12;fontStyle=0;aspect=fixed;shape=mxgraph.aws4.resourceIcon;resIcon=mxgraph.aws4.ec2;labelBackgroundColor=default;" vertex="1" parent="KThbdlaeHImmBJ1lx7RJ-22">
          <mxGeometry y="32.799999999999955" width="40" height="40" as="geometry" />
        </mxCell>
        <mxCell id="KThbdlaeHImmBJ1lx7RJ-24" value="" style="image;sketch=0;aspect=fixed;html=1;points=[];align=center;fontSize=12;image=img/lib/mscae/Docker.svg;" vertex="1" parent="KThbdlaeHImmBJ1lx7RJ-22">
          <mxGeometry width="40" height="32.8" as="geometry" />
        </mxCell>
        <mxCell id="KThbdlaeHImmBJ1lx7RJ-25" style="edgeStyle=none;shape=connector;rounded=0;orthogonalLoop=1;jettySize=auto;html=1;strokeColor=default;align=center;verticalAlign=middle;fontFamily=Helvetica;fontSize=11;fontColor=default;labelBackgroundColor=default;endArrow=none;endFill=0;" edge="1" parent="KThbdlaeHImmBJ1lx7RJ-1" source="KThbdlaeHImmBJ1lx7RJ-26" target="KThbdlaeHImmBJ1lx7RJ-30">
          <mxGeometry relative="1" as="geometry" />
        </mxCell>
        <mxCell id="KThbdlaeHImmBJ1lx7RJ-26" value="S3GW Endpoint" style="sketch=0;outlineConnect=0;fontColor=#232F3E;gradientColor=none;fillColor=#8C4FFF;strokeColor=none;dashed=0;verticalLabelPosition=bottom;verticalAlign=top;align=center;html=1;fontSize=12;fontStyle=0;aspect=fixed;pointerEvents=1;shape=mxgraph.aws4.endpoints;fontFamily=Helvetica;labelBackgroundColor=default;" vertex="1" parent="KThbdlaeHImmBJ1lx7RJ-1">
          <mxGeometry x="430" y="720" width="48" height="48" as="geometry" />
        </mxCell>
        <mxCell id="KThbdlaeHImmBJ1lx7RJ-27" value="" style="group;labelBackgroundColor=default;" vertex="1" connectable="0" parent="KThbdlaeHImmBJ1lx7RJ-1">
          <mxGeometry x="493" y="320" width="40" height="72.80000000000001" as="geometry" />
        </mxCell>
        <mxCell id="KThbdlaeHImmBJ1lx7RJ-28" value="" style="sketch=0;points=[[0,0,0],[0.25,0,0],[0.5,0,0],[0.75,0,0],[1,0,0],[0,1,0],[0.25,1,0],[0.5,1,0],[0.75,1,0],[1,1,0],[0,0.25,0],[0,0.5,0],[0,0.75,0],[1,0.25,0],[1,0.5,0],[1,0.75,0]];outlineConnect=0;fontColor=#232F3E;fillColor=#ED7100;strokeColor=#ffffff;dashed=0;verticalLabelPosition=bottom;verticalAlign=top;align=center;html=1;fontSize=12;fontStyle=0;aspect=fixed;shape=mxgraph.aws4.resourceIcon;resIcon=mxgraph.aws4.ec2;" vertex="1" parent="KThbdlaeHImmBJ1lx7RJ-27">
          <mxGeometry y="32.80000000000001" width="40" height="40" as="geometry" />
        </mxCell>
        <mxCell id="KThbdlaeHImmBJ1lx7RJ-29" value="" style="image;sketch=0;aspect=fixed;html=1;points=[];align=center;fontSize=12;image=img/lib/mscae/Docker.svg;" vertex="1" parent="KThbdlaeHImmBJ1lx7RJ-27">
          <mxGeometry width="40" height="32.8" as="geometry" />
        </mxCell>
        <mxCell id="KThbdlaeHImmBJ1lx7RJ-30" value="Image Storage (S3)" style="sketch=0;outlineConnect=0;fontColor=#232F3E;gradientColor=none;fillColor=#7AA116;strokeColor=none;dashed=0;verticalLabelPosition=bottom;verticalAlign=top;align=center;html=1;fontSize=12;fontStyle=0;aspect=fixed;pointerEvents=1;shape=mxgraph.aws4.bucket;fontFamily=Helvetica;labelBackgroundColor=default;" vertex="1" parent="KThbdlaeHImmBJ1lx7RJ-1">
          <mxGeometry x="720" y="720" width="46.15" height="48" as="geometry" />
        </mxCell>
        <mxCell id="Z1C53QJ-vrZe8WPQaVx9-2" style="edgeStyle=none;shape=connector;rounded=0;orthogonalLoop=1;jettySize=auto;html=1;entryX=0;entryY=0.5;entryDx=0;entryDy=0;entryPerimeter=0;dashed=1;strokeColor=default;align=center;verticalAlign=middle;fontFamily=Helvetica;fontSize=11;fontColor=default;labelBackgroundColor=default;endArrow=none;endFill=0;dashPattern=1 1;" edge="1" parent="KThbdlaeHImmBJ1lx7RJ-1" source="Z1C53QJ-vrZe8WPQaVx9-0" target="KThbdlaeHImmBJ1lx7RJ-18">
          <mxGeometry relative="1" as="geometry" />
        </mxCell>
        <mxCell id="Z1C53QJ-vrZe8WPQaVx9-3" style="edgeStyle=none;shape=connector;rounded=0;orthogonalLoop=1;jettySize=auto;html=1;dashed=1;dashPattern=1 1;strokeColor=default;align=center;verticalAlign=middle;fontFamily=Helvetica;fontSize=11;fontColor=default;labelBackgroundColor=default;endArrow=none;endFill=0;" edge="1" parent="KThbdlaeHImmBJ1lx7RJ-1" source="Z1C53QJ-vrZe8WPQaVx9-0" target="KThbdlaeHImmBJ1lx7RJ-28">
          <mxGeometry relative="1" as="geometry" />
        </mxCell>
        <mxCell id="Z1C53QJ-vrZe8WPQaVx9-4" style="edgeStyle=none;shape=connector;rounded=0;orthogonalLoop=1;jettySize=auto;html=1;dashed=1;dashPattern=1 1;strokeColor=default;align=center;verticalAlign=middle;fontFamily=Helvetica;fontSize=11;fontColor=default;labelBackgroundColor=default;endArrow=none;endFill=0;" edge="1" parent="KThbdlaeHImmBJ1lx7RJ-1" source="Z1C53QJ-vrZe8WPQaVx9-0" target="KThbdlaeHImmBJ1lx7RJ-23">
          <mxGeometry relative="1" as="geometry" />
        </mxCell>
        <mxCell id="Z1C53QJ-vrZe8WPQaVx9-5" style="edgeStyle=none;shape=connector;rounded=0;orthogonalLoop=1;jettySize=auto;html=1;dashed=1;dashPattern=1 1;strokeColor=default;align=center;verticalAlign=middle;fontFamily=Helvetica;fontSize=11;fontColor=default;labelBackgroundColor=default;endArrow=none;endFill=0;" edge="1" parent="KThbdlaeHImmBJ1lx7RJ-1" source="KThbdlaeHImmBJ1lx7RJ-20" target="Z1C53QJ-vrZe8WPQaVx9-0">
          <mxGeometry relative="1" as="geometry">
            <Array as="points">
              <mxPoint x="420" y="630" />
              <mxPoint x="310" y="630" />
            </Array>
          </mxGeometry>
        </mxCell>
      </root>
    </mxGraphModel>
  </diagram>
  <diagram id="XzAE67TPprxmwfV8iRa0" name="Page-3">
    <mxGraphModel dx="1050" dy="629" grid="1" gridSize="10" guides="1" tooltips="1" connect="1" arrows="1" fold="1" page="1" pageScale="1" pageWidth="850" pageHeight="1100" math="0" shadow="0">
      <root>
        <mxCell id="0" />
        <mxCell id="1" parent="0" />
      </root>
    </mxGraphModel>
  </diagram>
</mxfile>
